<svg id="Layer_1" data-name="Layer 1" xmlns="http://www.w3.org/2000/svg" viewBox="0 0 386.25 334.75"><defs><style>.cls-1{fill:#efa26f;}.cls-2{fill:#f89748;}.cls-3{fill:#fab17e;}.cls-4{fill:#d38254;}.cls-5{fill:#fcc299;}.cls-6{fill:#2b488c;}.cls-7{fill:#c3d7ef;}.cls-8{fill:#cde0f4;}.cls-9{fill:#fdd3b6;}.cls-10{fill:#ec7e2a;}.cls-11{fill:#f4f8fd;}</style></defs><path class="cls-1" d="M129.66,155.43S146.69,189.5,164,213c6.89,9.36,13.81,17,19.72,20.26s10.69,8,14.74,13.41c10.5,14,15.35,31.5,15.35,31.5L258,211.26s-1.51-65.43-6.82-76.37c-7.74-15.95-11.48-48.17-14.46-54.59-2.2-4.76-8.51-29.34-9.11-31.15-.26-.78-2.36-2-5.08-2-2.19,0-5.9,2.11-6.83,6.45-4.73,21.94,1,36.41.9,37.05-1.67,16.86,3.35,29.37-.17,32.69-.13.12-.38.06-.72-.16-6.1-3.91-43.95-59.1-48.62-60.29C162.21,61.66,129.66,155.43,129.66,155.43Z"/><path class="cls-2" d="M200.49,265s.6,29.74,2.33,69.8H314.41c-25.51-54.4-47.68-100.18-47.68-100.18S203.19,236.51,200.49,265Z"/><path class="cls-3" d="M91,40.11l13.7,20.08L118.12,79.9a3.08,3.08,0,0,0,2.8,1.24c3.22-.31,7.21-5,10.32-7.54l.32-.26a9.7,9.7,0,0,0,1.29-13.62L112.3,34.88h0l-6.09-7.37a9.72,9.72,0,0,0-13.63-1.29l-.32.26A9.71,9.71,0,0,0,91,40.11Z"/><path class="cls-1" d="M104.68,60.19,118.12,79.9a3.08,3.08,0,0,0,2.8,1.24L112.3,34.88C112.28,35.14,110.82,55.89,104.68,60.19Z"/><path class="cls-4" d="M164,213c6.89,9.36,13.81,17,19.72,20.26s10.69,8,14.74,13.41c4.67-2.17,10-4.72,15.18-7.24a8.66,8.66,0,0,0,.37-15.39l-.18-.1c-5.8-3.32-11.75-15.05-11.75-15.05Z"/><path class="cls-5" d="M228,50.17l3.58,14.47s-3.13,1.28-5.14.29S222.74,51,228,50.17Z"/><rect class="cls-6" x="111.08" y="22.86" width="104.65" height="197" rx="13.41" transform="translate(326.82 242.72) rotate(-180)"/><path class="cls-7" d="M116.27,38v165.5a10.2,10.2,0,0,0,10.13,10.21h74a10.2,10.2,0,0,0,10.13-10.21V38a10.2,10.2,0,0,0-10.13-10.21h-74A10.2,10.2,0,0,0,116.27,38Z"/><path class="cls-8" d="M126.4,27.74l73.1,185.92h.92a10.2,10.2,0,0,0,10.13-10.21V38a10.2,10.2,0,0,0-10.13-10.21Z"/><rect class="cls-6" x="143.36" y="24.01" width="40.1" height="9.88" rx="4.46" transform="translate(326.82 57.91) rotate(-180)"/><path class="cls-3" d="M97.8,116l2,.77L113.58,122a7.27,7.27,0,0,0,1,.31,9.38,9.38,0,0,0,11.1-5.73l.2-.53a9.38,9.38,0,0,0-5.42-12.07l-12.81-4.86-.93-.36-2-.78a9.4,9.4,0,0,0-12.07,5.43l-.2.53A9.4,9.4,0,0,0,97.8,116Z"/><path class="cls-9" d="M109,116.27a55.09,55.09,0,0,0,8.67,2.73,3.65,3.65,0,0,0,2.86-1.43,8.47,8.47,0,0,0,1.73-3.12,9.92,9.92,0,0,0,.47-2,8.12,8.12,0,0,0-.08-2.36,2.33,2.33,0,0,0-1.31-1.69h0a54.28,54.28,0,0,0-8.33-3.26,3.62,3.62,0,0,0-4.49,2l-.29.79-1.47,4A3.45,3.45,0,0,0,109,116.27Z"/><path class="cls-5" d="M109,116.27a55.09,55.09,0,0,0,8.67,2.73,3.65,3.65,0,0,0,2.86-1.43,8.59,8.59,0,0,0,.32-.86,9.28,9.28,0,0,0,.47-2,8.12,8.12,0,0,0-.07-2.36,2.38,2.38,0,0,0-1.31-1.69h0a54.28,54.28,0,0,0-8.33-3.26,4,4,0,0,0-3.38.53l-1.47,4A3.45,3.45,0,0,0,109,116.27Z"/><rect class="cls-3" x="104.4" y="118.71" width="13.38" height="23.11" rx="6.07" transform="translate(-43.78 203.23) rotate(-74.77)"/><path class="cls-9" d="M109.76,134.75a47.71,47.71,0,0,0,7.31,1.54c.67,0,2-.53,2.89-2.29a7.26,7.26,0,0,0,.54-1.5,6.94,6.94,0,0,0,.24-1.55,6.24,6.24,0,0,0-.24-1.82,1.9,1.9,0,0,0-1.2-1.21h0a46.74,46.74,0,0,0-7.07-2,3,3,0,0,0-3.54,1.83l-.27,1-.82,2.86A2.68,2.68,0,0,0,109.76,134.75Z"/><path class="cls-5" d="M109.76,134.75a47.71,47.71,0,0,0,7.31,1.54c.67,0,2-.53,2.89-2.29a6.68,6.68,0,0,0,.21-1.46,6.19,6.19,0,0,0-.23-1.82,1.92,1.92,0,0,0-1.2-1.21h0a45.42,45.42,0,0,0-7.08-2,3.17,3.17,0,0,0-3.24,1.19l-.82,2.86A2.68,2.68,0,0,0,109.76,134.75Z"/><path class="cls-10" d="M277.59,257.14S255.78,278,241.08,286.09L230,278.19v11.65s-21.89,3.87-28.79,0V258.08l61.48-30.82Z"/><path class="cls-11" d="M258,208.91s13.85,20.71,27.61,42.86c0,0-29,20-44.73,25.81L220.29,254l3,28.43s-18.26,6.66-26.73,4.92c0,0,.54-25.8.53-42.7C197,244.61,247.22,230.54,258,208.91Z"/><path class="cls-2" d="M254.63,261.48a3.43,3.43,0,1,0-3.4,3.47A3.42,3.42,0,0,0,254.63,261.48Z"/><path class="cls-3" d="M98.13,95.65l.23.08,13.89,3.57c6.11,1.57,12.42-1.74,14-7.35l.83-2.87c1.55-5.38-1.78-11-7.46-12.84l-4.58-1.18-9.31-2.39c-6.1-1.57-12.42,1.74-14,7.35l-.83,2.87C89.38,88.2,92.6,93.75,98.13,95.65Z"/><path class="cls-9" d="M104.5,91.77l6.74,3h.05a7.73,7.73,0,0,0,.81.16l.34.05h.15a1.08,1.08,0,0,0,.93-1.52,6.68,6.68,0,0,1-.38-4.57l.16-.59v0l.53-1.91a7.12,7.12,0,0,1,2.44-3.73,4.35,4.35,0,0,1,.43-.32,1.94,1.94,0,0,0-.57-3.45l0,0-7.41-1.12a3.53,3.53,0,0,0-4.09,2.75l-.6,2.18-1.26,4.65C102.23,89.21,102.67,91.28,104.5,91.77Z"/><path class="cls-5" d="M104.5,91.77l6.74,3h.05l1.3.21a1.08,1.08,0,0,0,.93-1.52,6.68,6.68,0,0,1-.38-4.57l.16-.59v0l.53-1.91a7.12,7.12,0,0,1,2.44-3.73,1.87,1.87,0,0,0-1.06-.76h0l-7.41-1.12A3.37,3.37,0,0,0,104,82.72l-1.26,4.65C102.23,89.21,102.67,91.28,104.5,91.77Z"/><path class="cls-4" d="M215.74,167.9s3-26.45,5.82-31.61,5.17-15.49.86-23.16-5.78-22.45-5.78-22.45c-1.67,16.86,3.35,29.37-.17,32.69-.13.12-.38.06-.72-.16Z"/></svg>