<?xml version="1.0" encoding="utf-8"?>
<!-- Generator: Adobe Illustrator 25.2.1, SVG Export Plug-In . SVG Version: 6.00 Build 0)  -->
<svg version="1.1" xmlns="http://www.w3.org/2000/svg" xmlns:xlink="http://www.w3.org/1999/xlink" x="0px" y="0px"
	 viewBox="0 0 635.07 332.1" style="enable-background:new 0 0 635.07 332.1;" xml:space="preserve">
<style type="text/css">
	.st0{fill:#FFFFFF;}
	.st1{fill:#FBAA19;}
	.st2{fill:#2D439C;}
	.st3{fill:#025ACE;}
	.st4{fill:#2EB7ED;}
	.st5{fill:#A2D9EA;}
	.st6{fill:#133554;}
	.st7{fill:#D67F66;}
	.st8{fill:#E69E74;}
	.st9{fill:#F7E9E9;}
	.st10{fill:#262526;}
	.st11{fill:#023266;}
	.st12{fill:#EFA26F;}
	.st13{fill:#F99746;}
	.st14{fill:#FFB27D;}
	.st15{fill:#D38254;}
	.st16{fill:#FFC197;}
	.st17{fill:#2B478B;}
	.st18{fill:#C0D8FB;}
	.st19{fill:#CBE1FD;}
	.st20{fill:#FFD3B6;}
	.st21{fill:#ED7D2B;}
	.st22{fill:#F3F8FF;}
	.st23{fill:#29A6CC;}
	.st24{fill:#F2F7FC;}
	.st25{fill:none;stroke:#C0D8FB;stroke-width:0.9194;stroke-miterlimit:10;}
	.st26{fill:none;stroke:#000000;stroke-width:1.107;stroke-miterlimit:10;}
	.st27{opacity:0.05;}
	.st28{fill:#F4F4F4;}
	.st29{fill:#F8FAFB;}
	.st30{fill:#0F5493;}
	.st31{fill:#DDDDDD;}
	.st32{fill:none;stroke:#C0D8FB;stroke-width:1.3728;stroke-miterlimit:10;}
	.st33{fill:none;stroke:#000000;stroke-width:1.5184;stroke-miterlimit:10;}
	.st34{fill:#AAB1C7;}
	.st35{fill:#AA6B4B;}
	.st36{fill:#F7CC9A;}
	.st37{fill:#EF924D;}
	.st38{fill:#9B5E54;}
	.st39{fill:#E5BB91;}
	.st40{fill:#C4753F;}
</style>
<g id="Layer_1">
	<path class="st9" d="M297.23,159.9c11.95-5.8,22.26-1.42,27.59,11.73c-0.22,3.34-0.43,6.68-0.64,10.01
		c-7.66-10.33-17.89-14.02-30.41-11.78C294.92,166.55,296.07,163.23,297.23,159.9z"/>
	<path class="st9" d="M46.94,171.88c2.63-7.32,8.08-11.95,15-14.74c7.84-3.17,14.93-0.04,18.72,7.68c-0.34,2.86-0.67,5.72-1.01,8.57
		c-10.95-6.94-21.86-6.16-32.73,0.17C46.92,173.01,46.93,172.45,46.94,171.88z"/>
	<path class="st9" d="M175.29,253.18c2.84-11.75,10.45-18.2,20.65-17.32c5.28,0.46,9.65,2.65,12.35,7.48
		c-0.21,2.54-0.42,5.07-0.63,7.6c-11.51-5.45-22.04-2.76-32.11,3.83C175.47,254.25,175.38,253.71,175.29,253.18z"/>
	<path class="st6" d="M575.27,332.1c-9.85-31.48-19.7-62.96-29.54-94.44c-1.3-4.14-2.38-8.36-3.92-12.41
		c-1.05-2.76-1.02-4.95,1.35-6.87c9.24-8.28,19.63-10.62,31.36-6.1c1.79,1.91,4.23,3.53,5.27,5.79
		c16.81,36.52,33.45,73.12,50.08,109.73c0.6,1.33,0.74,2.87,1.09,4.31C612.4,332.1,593.84,332.1,575.27,332.1z"/>
	<path class="st6" d="M11.42,332.1c4.64-24.26,9.29-48.52,13.92-72.78c2.76-14.47,5.4-28.97,8.32-43.41
		c0.45-2.21,2.12-4.17,3.23-6.24c10.88-6.33,21.79-7.11,32.73-0.17c4.15,2.39,2.61,6.26,2.38,9.67
		c-2.47,36.07-5.01,72.13-7.51,108.19c-0.11,1.57,0,3.16,0,4.75C46.8,332.1,29.11,332.1,11.42,332.1z"/>
	<path class="st6" d="M248.1,332.1c4.98-19.59,9.92-39.2,14.95-58.77c5.36-20.84,10.87-41.65,16.11-62.52
		c0.7-2.79,1.92-4.29,4.57-4.85c12.53-2.24,22.76,1.45,30.41,11.78c0.38,2.18,1.33,4.44,1.05,6.53
		c-4.8,35.09-9.75,70.16-14.66,105.24c-0.12,0.86-0.15,1.73-0.22,2.59C282.9,332.1,265.5,332.1,248.1,332.1z"/>
	<path class="st6" d="M197.64,287.04c2.64,1.69,3.53,3.98,3.56,7.21c0.12,11.08,0.6,22.15,1,33.23c0.06,1.55,0.42,3.08,0.64,4.62
		c-14.21,0-28.42,0-42.64,0c0.88-12.48,1.69-24.97,2.75-37.44c0.11-1.32,1.68-2.53,2.57-3.78
		C175.6,284.28,186.13,281.59,197.64,287.04z"/>
	<path class="st6" d="M442.94,298.1c0.91,2.04,2.28,4,2.65,6.13c1.62,9.26,2.94,18.58,4.38,27.87c-13.34,0-26.68,0-40.03,0
		c0.05-10.11,0.25-20.23,0.07-30.33c-0.05-3.13,0.61-5.3,3.6-6.46C423.96,290.3,433.74,291.17,442.94,298.1z"/>
	<path class="st1" d="M51.5,143.17c0.85-5.57,1.75-11.13,2.51-16.71c0.45-3.3-2.05-4.39-4.44-5.62
		c-18.9-9.67-29.62-25.02-31.47-46.24C15.58,45.76,37.04,19.5,66.15,15.58c28.94-3.9,56.56,15.94,61.87,44.43
		c5.69,30.56-13.41,58.93-43.89,65.19c-5.69,1.17-6.1,1.7-6.6,8.73c-0.56,3.98-1.22,7.96-1.67,11.95c-0.66,5.84-2.8,9.04-7.04,10.16
		c-4.81,1.27-10.63-0.58-13.42-4.75C53.74,148.82,52.78,145.9,51.5,143.17z M30.42,70.58c-0.09,23.81,18.93,43.05,42.6,43.09
		c23.6,0.04,42.77-18.86,42.93-42.32c0.16-23.91-18.64-43.11-42.37-43.27C49.77,27.92,30.51,46.89,30.42,70.58z"/>
	<path class="st1" d="M174.13,223.21c0.3-4.6,0.42-9.23,0.94-13.81c0.51-4.47-1.15-6.72-5.46-8.35
		c-22.94-8.7-37.02-31.12-35.43-55.81c1.52-23.59,18.67-43.98,41.91-49.83c28.78-7.24,58.21,9.48,66.77,37.92
		c8.56,28.45-6.79,58.57-34.85,68.4c-9.22,3.23-9.22,3.23-8.81,13.13c-0.23,3.46-0.56,6.92-0.69,10.38
		c-0.27,7.09-5.55,11.29-12.56,9.97C179.2,233.94,176.13,229.12,174.13,223.21z M189.17,192.23c23.58,0.1,42.8-18.77,43.04-42.25
		c0.24-23.65-18.87-43.14-42.48-43.3c-23.71-0.16-43.12,18.91-43.26,42.52C146.34,172.9,165.42,192.13,189.17,192.23z"/>
	<path class="st1" d="M303.07,124.15c2.68-6.86,2.51-7.43-3.39-11.22c-21.58-13.87-30.79-40.82-22.25-65.15
		c8.6-24.53,32.53-39.39,59.07-36.69c24.66,2.5,45.19,22.86,48.4,47.99c4.06,31.77-18.91,60.03-50.92,62.52
		c-3.56,0.28-5.66,1.55-6.38,5.15c-1,4.96-2.19,9.88-3.3,14.82c-0.02,0.73-0.33,7.87-5.82,11.19c-3.59,2.17-7.42,1.51-10.06,1.06
		c-5.22-0.89-8.5-3.72-9.77-4.84c-1.68-1.49-2.85-2.52-3.29-4.26c-1.06-4.17,3.12-8.1,3.58-8.52
		C300.31,132.18,301.69,128.17,303.07,124.15z M372.79,66.42c-0.05-23.76-19.29-42.93-42.93-42.77
		c-23.73,0.16-42.72,19.37-42.63,43.13c0.09,23.44,19.3,42.55,42.77,42.54C353.75,109.31,372.84,90.17,372.79,66.42z"/>
	<path class="st1" d="M516.38,138.85c-1.03-7.05-1.78-7.73-8.69-7.85c-27.16-0.51-50.01-20.61-54.06-47.56
		c-3.97-26.39,11.96-52.29,37.36-60.76c25.67-8.56,53.92,2.61,66.62,26.34c12.86,24.03,6.6,53.85-15.09,70.29
		c-4.02,3.05-5.45,5.79-3.3,10.53c1.85,4.06,3.05,8.41,4.55,12.63c0.53,0.69,7.08,9.38,3.91,17.25
		c-4.44,11.03-24.43,11.68-29.68,5.1c-1.74-2.18-1.78-6.79-1.87-16C516.09,144.71,516.23,141.29,516.38,138.85z M508.98,118.22
		c23.8-0.04,42.85-19.12,42.8-42.86c-0.05-23.7-19.25-42.74-43.03-42.67c-23.54,0.07-42.49,19.08-42.54,42.68
		C466.17,99.17,485.21,118.25,508.98,118.22z"/>
	<path class="st1" d="M412.14,225.85c0.39-4.22-0.49-5.7-0.93-6.3c-0.84-1.12-2.48-1.65-5.76-2.7
		c-23.33-7.49-38.4-30.99-35.06-54.67c3.59-25.44,23.88-44.07,48.82-44.84c24.67-0.76,46.61,16.29,51.58,40.07
		c1.72,8.25,1.47,16.88-0.83,25c-2.38,8.36-7.03,15.95-13.24,22.01c-3.18,3.11-6.97,6.01-10.94,8.19
		c-3.45,1.89-7.81,2.49-10.37,5.76c-1.31,1.68-1.43,3.84-1.17,5.87c0.5,3.87,0.48,7.8,0.68,11.7c0.95,1.8,2.37,5.3,1.18,8.78
		c-2.13,6.2-11.23,8.5-17.48,6.52c-1.07-0.34-4.16-1.47-6.52-4.48c-3.15-4.03-2.89-8.76-2.81-10.03
		C409.6,232.25,411.6,231.69,412.14,225.85z M421.03,129.24c-21.76,0.06-39.05,17.53-39.01,39.41
		c0.04,21.68,17.67,39.15,39.42,39.05c21.72-0.1,39.1-17.66,39.04-39.45C460.41,146.55,442.85,129.18,421.03,129.24z"/>
	<path class="st8" d="M412.14,225.85c0.13,3.58,0.31,7.16,0.38,10.75c0.1,5.76,2.04,9.01,6.14,10.1c5.26,1.4,11.06-0.54,13.71-4.86
		c1.11-1.81,1.72-3.93,2.55-5.91c7.16,1.49,8.27,2.74,9.51,10.18c0.16,0.97,0.92,1.91,1.57,2.72c0.97,1.21,2.68,2.14,3.06,3.48
		c1.43,5.08,3.76,10.48,3.82,15.25c0.11,9.97-0.75,20.49-8.9,28.23c-0.3,0.29-0.69,0.48-1.04,0.72
		c-5.51-14.13-18.93-17.45-29.07-7.18c-2.74-5.34-5.66-10.59-8.1-16.06c-0.73-1.64-0.11-3.88-0.11-6c-5.6-2.2-6.52-4.91-3.25-10.38
		c0.43-0.72,0.99-1.48,1.06-2.27c0.76-7.85,1.37-15.71,2.15-23.55C406.06,226.62,407.68,225.41,412.14,225.85z"/>
	<path class="st8" d="M516.38,138.85c1.4,3.79,2.89,7.54,4.18,11.36c2.92,8.63,11.71,10.77,18.45,4.49
		c3.59-3.34,4.27-7.73,4.75-12.24c6.29-1.42,9.94,0.58,12.35,6.32c0.62,1.46,2.17,2.57,3.39,3.74c1.82,1.75,4.62,3.08,5.39,5.18
		c1.52,4.18,3.54,7.81,6.69,10.87c-0.97,1.25-1.94,2.5-2.92,3.74c-5.8,7.28-12.04,14.02-20.85,17.81
		c-7.49,3.22-19.19-0.5-23.18-6.99c-2.28-3.71-5.47-6.88-8.25-10.29c-1.72-9.2-3.53-18.38-5.14-27.6
		C510.48,140.85,512.05,139.09,516.38,138.85z"/>
	<path class="st35" d="M303.07,124.17c-0.83,4-1.42,8.07-2.55,11.99c-1.3,4.51-1.12,8.53,2.85,11.4c4.28,3.1,9.17,4.13,13.81,1.12
		c2.71-1.76,4.77-4.56,7.12-6.89c0.48-0.47,4.59,2.69,5.08,3.18c3.11,3.09,1.78,6.47,1.85,10.29c0.1,5.57,2.04,5.7,2.97,11.01
		c0.52,2.92,0.88,7.19-0.05,12.66c-0.08,0.23-0.15,0.47-0.23,0.7c-11.49,11.17-27.16,13.47-37.26,6.85
		c-7.25-4.75-9.59-12.76-10.31-15.82c-2.1-10.92-1.48-15.37-0.82-17.37c0.1-0.29,0.79-2.3,1.53-4.45c0.58-1.68,1.16-3.35,1.75-5.02
		c1.19-3.34,2.41-6.66,3.72-9.95c1.16-2.91,2.16-6.58,4.03-9.09C298.32,122.41,300.75,122.94,303.07,124.17z"/>
	<path class="st36" d="M51.5,143.25c1.27,2.74,2.24,5.69,3.89,8.18c2.79,4.21,8.61,6.07,13.42,4.79c4.24-1.13,6.38-4.36,7.04-10.24
		c0.45-4.03,1.11-8.03,1.67-12.05c3.65-0.43,5.99,1.04,6.25,4.84c0.51,7.66,0.92,15.34,1.14,23.01c0.06,1.97-0.77,3.97-1.19,5.95
		c-2.11,4.28-4.25,8.55-6.34,12.84c-3.95,8.12-12.36,12.41-21.14,10.43c-10.95-2.46-19.54-8.8-26.74-17.24c0-0.1,0-0.21,0-0.31
		c1.61-4.7,3.14-8.54,4.28-11.28c5.22-12.5,8.95-14.01,9.98-16.29C44.53,144.16,48.83,144.08,51.5,143.25z"/>
	<path class="st37" d="M174.13,223.21c2,5.91,5.07,10.73,11.83,12c7,1.32,12.29-2.88,12.56-9.97c0.13-3.46,0.45-6.92,0.69-10.38
		c5.89,7.66,10.24,15.9,9.71,25.96c-0.08,1.43-0.16,2.87-0.23,4.3c-0.43,0.73-0.92,1.43-1.32,2.17c0,0-0.19,0.37-0.37,0.75
		c-0.94,1.99-2.87,10.46-4.87,14.38c-2.32,4.56-6.65,6.73-7.87,7.29c-4.83,2.21-9.57,1.44-13.61,0.77c-3.62-0.59-6.2-1.61-8.35-2.45
		c-1.47-0.58-6.79-2.75-12.81-7.32c-2.17-1.65-3.87-3.19-5.06-4.34c1.46-5.74,2.85-10.53,4.21-14.02c1.97-5.07,5.33-9.46,7.39-14.49
		C167.35,224.55,171.2,224.52,174.13,223.21z"/>
	<path class="st38" d="M285.54,152.91c0.53,4.69,1.45,9.39,1.51,14.09c0.14,11.49,13.27,20.19,25.9,17.64
		c7.16-1.44,14.14-3.78,21.21-5.72c-3.73,11.44-7.99,22.52-19.37,28.81c-5.33-13.15-15.64-17.54-27.59-11.73
		c-1.01-5.35-2-10.7-3.02-16.05c-0.42-2.21-1.3-4.42-1.27-6.62c0.04-2.67,0.81-5.33,1.32-8.29
		C278.62,161.9,278.85,156.99,285.54,152.91z"/>
	<path class="st7" d="M516.38,172.84c2.78,3.41,5.96,6.57,8.25,10.29c3.99,6.49,15.69,10.2,23.18,6.99
		c8.81-3.79,15.05-10.53,20.85-17.81c0.99-1.24,1.95-2.49,2.92-3.74c2.77,11.78,5.57,23.56-1.44,34.94
		c-11.03-8.51-21.81-6.81-29.5,4.67c-3.96-4.55-7.92-9.11-11.87-13.66c-0.65-0.75-1.16-1.67-1.93-2.28
		c-3.88-3.11-3.9-3.08-4.12-8.22C515.05,182.2,513.47,179.43,516.38,172.84z"/>
	<path class="st39" d="M29.5,173.45c7.2,8.38,15.79,14.67,26.74,17.11c8.79,1.96,17.19-2.29,21.14-10.35
		c2.09-4.26,4.22-8.49,6.34-12.74c4.84,6.01,3.3,10.75-3.35,11.85c0.41,8.97-6.08,14.68-9.74,21.6c-3.8-7.73-10.88-10.85-18.72-7.68
		c-6.91,2.79-12.37,7.42-15,14.74c-2.7-5.99-6.01-11.8-7.86-18.04c-1.21-4.07-0.34-8.77-0.28-13.18
		C28.78,175.65,29.24,174.55,29.5,173.45z"/>
	<path class="st40" d="M154.39,256.37c7.12,6.24,13.98,9.4,18.49,11.05c6.33,2.32,12.11,4.41,18.4,2.15
		c3.59-1.29,6.79-3.77,9.44-7.42c2.96-4.07,4.18-9.38,6.25-14.11c0.45-1.03,1.13-1.95,1.7-2.92c4.8,5.62,3.79,9.85-2.52,11.84
		c0.74,8.77-4.95,15.16-7.88,22.48c-2.7-4.83-7.07-7.02-12.35-7.48c-10.21-0.88-17.82,5.57-20.65,17.32
		c-2.47-2.81-6.34-7.92-8.79-15.34C154.02,266.51,154.08,260.1,154.39,256.37z"/>
	<path class="st9" d="M540.64,208.17c7.69-11.47,18.47-13.18,29.5-4.67c1.46,2.93,2.92,5.85,4.38,8.78
		c-11.73-4.53-22.12-2.18-31.36,6.1C542.32,214.97,541.48,211.57,540.64,208.17z"/>
	<path class="st9" d="M287.2,196c11.95-5.8,22.26-1.42,27.59,11.73c-0.22,3.34-0.43,6.68-0.64,10.01
		c-7.66-10.33-17.89-14.02-30.41-11.78C284.89,202.64,286.04,199.32,287.2,196z"/>
	<path class="st9" d="M36.91,207.98c2.63-7.32,8.08-11.95,15-14.74c7.84-3.17,14.93-0.04,18.72,7.68c-0.34,2.86-0.67,5.72-1.01,8.57
		c-10.95-6.94-21.86-6.16-32.73,0.17C36.89,209.1,36.9,208.54,36.91,207.98z"/>
	<path class="st9" d="M165.26,289.27c2.84-11.75,10.45-18.2,20.65-17.32c5.28,0.46,9.65,2.65,12.35,7.48
		c-0.21,2.54-0.42,5.07-0.63,7.6c-11.51-5.45-22.04-2.76-32.11,3.83C165.44,290.34,165.35,289.81,165.26,289.27z"/>
	<path class="st9" d="M413.88,289.33c10.14-10.26,23.56-6.95,29.07,7.18c0,0.53,0,1.06,0,1.59c-9.21-6.93-18.99-7.8-29.33-2.79
		C413.7,293.31,413.79,291.32,413.88,289.33z"/>
	<path class="st9" d="M30.42,70.58c0.09-23.69,19.35-42.66,43.15-42.5c23.73,0.16,42.53,19.36,42.37,43.27
		c-0.16,23.46-19.33,42.36-42.93,42.32C49.36,113.63,30.34,94.39,30.42,70.58z"/>
	<path class="st9" d="M189.17,192.23c-23.75-0.1-42.83-19.33-42.7-43.04c0.14-23.6,19.55-42.68,43.26-42.52
		c23.61,0.16,42.72,19.65,42.48,43.3C231.98,173.46,212.76,192.33,189.17,192.23z"/>
	<path class="st9" d="M372.79,66.42c0.05,23.75-19.04,42.89-42.79,42.9c-23.47,0.01-42.68-19.1-42.77-42.54
		c-0.09-23.76,18.9-42.97,42.63-43.13C353.5,23.49,372.74,42.66,372.79,66.42z"/>
	<path class="st9" d="M508.98,118.22c-23.77,0.04-42.81-19.05-42.77-42.85c0.05-23.59,19-42.6,42.54-42.68
		c23.78-0.07,42.98,18.96,43.03,42.67C551.83,99.1,532.78,118.18,508.98,118.22z"/>
	<path class="st9" d="M421.03,129.24c21.82-0.06,39.38,17.3,39.44,39c0.06,21.79-17.32,39.35-39.04,39.45
		c-21.74,0.1-39.38-17.37-39.42-39.05C381.98,146.78,399.27,129.31,421.03,129.24z"/>
	<path class="st9" d="M402.28,178.37c0-3.39,0-5.39,0-8.32c2.29,0.48,4.63,0.67,6.64,1.58c0.62,0.28,0.92,3.39,0.39,3.74
		C407.44,176.61,405.15,177.22,402.28,178.37z"/>
	<path class="st9" d="M434.52,176.08c-0.26-5.21-0.52-10.38-0.85-16.93c3.07,0.88,6.45,0.89,8.19,2.58
		c3.02,2.93,2.67,7.2,1.07,10.98C441.41,176.3,438.1,176.3,434.52,176.08z"/>
	<g>
		<g>
			<path d="M53.35,77.7l-10.99-1.12l0.48-4.65l1.69,0.17l1.04-10.13l-1.69-0.17l0.48-4.65l11.87,1.21c2.33,0.24,4.11,0.56,5.36,0.96
				c1.23,0.41,2.16,1.06,2.79,1.96c0.63,0.92,0.89,1.94,0.77,3.07c-0.11,1.1-0.54,1.94-1.29,2.52c-0.77,0.6-1.66,0.98-2.68,1.14
				c1.33,0.55,2.31,1.29,2.96,2.22c0.66,0.95,0.93,1.97,0.82,3.06c-0.13,1.3-0.67,2.37-1.6,3.19c-0.93,0.82-2.14,1.29-3.63,1.42
				C58.25,78.06,56.13,77.99,53.35,77.7z M52.39,69.43L52,73.26l1.69,0.17c1.08,0.11,1.87,0.05,2.38-0.18
				c0.49-0.23,0.78-0.7,0.85-1.41c0.07-0.66-0.09-1.17-0.48-1.53c-0.39-0.35-1.18-0.59-2.38-0.71L52.39,69.43z M53.12,62.35
				l-0.36,3.55l1.66,0.17c1.13,0.12,1.88,0.03,2.27-0.26c0.37-0.29,0.58-0.7,0.63-1.23c0.05-0.46-0.07-0.88-0.34-1.28
				c-0.27-0.39-1.09-0.66-2.47-0.8L53.12,62.35z"/>
			<path d="M78.76,80.3l-11.08-1.13l0.48-4.65l1.79,0.18l1.04-10.13l-1.79-0.18l0.48-4.65l11.08,1.13l-0.48,4.65l-1.77-0.18
				l-1.04,10.13l1.77,0.18L78.76,80.3z"/>
			<path d="M91.42,81.6l-9.04-0.92l0.48-4.65l1.52,0.16l1.04-10.13L83.9,65.9l0.48-4.65l9.3,0.95c2.12,0.22,3.84,0.52,5.16,0.92
				c1.32,0.4,2.54,1.06,3.65,2c1.1,0.94,1.92,2.14,2.45,3.61c0.27,0.71,0.45,1.45,0.55,2.23c0.1,0.78,0.11,1.59,0.02,2.43
				c-0.17,1.69-0.69,3.19-1.55,4.5c-0.85,1.31-1.86,2.27-3.02,2.89c-1.14,0.63-2.35,0.99-3.64,1.08
				C96.02,81.96,94.06,81.87,91.42,81.6z M92.94,66.82L91.9,76.95l0.71,0.07c1.77,0.18,2.97-0.17,3.59-1.06
				c0.62-0.89,1-2.04,1.14-3.47c0.09-0.86,0.06-1.72-0.07-2.58c-0.15-0.86-0.49-1.55-1.03-2.07c-0.53-0.51-1.54-0.85-3.03-1
				L92.94,66.82z"/>
		</g>
	</g>
	<g>
		<g>
			<path d="M168.43,157.95l-11.04-0.5l0.21-4.67l1.7,0.08l0.46-10.17l-1.7-0.08l0.21-4.67l11.92,0.54c2.34,0.11,4.14,0.32,5.41,0.65
				c1.25,0.34,2.22,0.94,2.9,1.8c0.68,0.88,1,1.89,0.94,3.02c-0.05,1.1-0.43,1.97-1.14,2.59c-0.73,0.64-1.6,1.07-2.62,1.29
				c1.36,0.47,2.38,1.16,3.08,2.05c0.71,0.91,1.04,1.92,0.99,3.01c-0.06,1.31-0.53,2.4-1.41,3.28c-0.88,0.87-2.07,1.41-3.55,1.62
				C173.34,158.03,171.22,158.08,168.43,157.95z M167.01,149.75l-0.18,3.84l1.7,0.08c1.08,0.05,1.87-0.06,2.36-0.31
				c0.48-0.26,0.74-0.75,0.77-1.46c0.03-0.66-0.16-1.17-0.56-1.5c-0.41-0.33-1.21-0.52-2.42-0.58L167.01,149.75z M167.33,142.64
				l-0.16,3.56l1.67,0.08c1.13,0.05,1.88-0.08,2.25-0.39c0.35-0.31,0.54-0.74,0.56-1.27c0.02-0.46-0.11-0.88-0.41-1.25
				c-0.29-0.38-1.13-0.6-2.51-0.66L167.33,142.64z"/>
			<path d="M193.94,159.12l-11.12-0.51l0.21-4.67l1.8,0.08l0.46-10.17l-1.8-0.08l0.21-4.67l11.12,0.51l-0.21,4.67l-1.78-0.08
				l-0.46,10.17l1.78,0.08L193.94,159.12z"/>
			<path d="M206.66,159.7l-9.07-0.41l0.21-4.67l1.53,0.07l0.46-10.17l-1.53-0.07l0.21-4.67l9.34,0.43c2.13,0.1,3.86,0.31,5.2,0.63
				c1.34,0.32,2.6,0.92,3.76,1.79c1.15,0.88,2.03,2.03,2.65,3.47c0.31,0.69,0.53,1.42,0.67,2.19c0.14,0.78,0.19,1.58,0.16,2.42
				c-0.08,1.69-0.51,3.22-1.29,4.58c-0.77,1.35-1.72,2.37-2.85,3.06c-1.1,0.69-2.29,1.12-3.57,1.29
				C211.27,159.79,209.31,159.82,206.66,159.7z M207.34,144.86l-0.46,10.17l0.72,0.03c1.78,0.08,2.95-0.34,3.53-1.26
				c0.57-0.92,0.88-2.1,0.95-3.53c0.04-0.86-0.03-1.72-0.22-2.57c-0.2-0.85-0.58-1.52-1.15-2.01c-0.56-0.48-1.59-0.76-3.08-0.83
				L207.34,144.86z"/>
		</g>
	</g>
	<g>
		<g>
			<path d="M308.3,73.04l-10.88-1.94l0.82-4.6l1.67,0.3l1.79-10.02l-1.67-0.3l0.82-4.6l11.75,2.09c2.3,0.41,4.06,0.86,5.28,1.35
				c1.19,0.5,2.07,1.22,2.64,2.17c0.56,0.96,0.74,2,0.54,3.12c-0.19,1.09-0.68,1.89-1.47,2.42c-0.81,0.54-1.73,0.85-2.76,0.93
				c1.28,0.65,2.21,1.46,2.79,2.44c0.58,1,0.78,2.04,0.59,3.11c-0.23,1.29-0.84,2.31-1.83,3.07c-0.99,0.75-2.23,1.13-3.73,1.15
				C313.16,73.76,311.05,73.53,308.3,73.04z M307.96,64.72l-0.67,3.79l1.67,0.3c1.07,0.19,1.86,0.19,2.38,0
				c0.51-0.19,0.83-0.64,0.95-1.34c0.12-0.65,0-1.18-0.36-1.56c-0.36-0.38-1.14-0.67-2.32-0.88L307.96,64.72z M309.2,57.71
				l-0.63,3.51l1.64,0.29c1.12,0.2,1.88,0.17,2.28-0.09c0.39-0.26,0.63-0.66,0.72-1.18c0.08-0.45,0-0.88-0.24-1.3
				c-0.24-0.41-1.04-0.74-2.41-0.99L309.2,57.71z"/>
			<path d="M333.44,77.52l-10.96-1.95l0.82-4.6l1.77,0.31l1.79-10.02l-1.77-0.31l0.82-4.6l10.96,1.95l-0.82,4.6l-1.76-0.31
				l-1.79,10.02l1.76,0.31L333.44,77.52z"/>
			<path d="M345.98,79.75l-8.94-1.59l0.82-4.6l1.51,0.27l1.79-10.02l-1.51-0.27l0.82-4.6l9.21,1.64c2.1,0.37,3.79,0.81,5.07,1.3
				c1.29,0.5,2.45,1.25,3.49,2.26c1.03,1.02,1.75,2.28,2.18,3.78c0.21,0.72,0.34,1.48,0.38,2.26c0.04,0.79-0.01,1.59-0.16,2.42
				c-0.3,1.67-0.92,3.12-1.88,4.37c-0.94,1.24-2.02,2.13-3.23,2.66c-1.18,0.54-2.42,0.81-3.71,0.81
				C350.53,80.45,348.59,80.21,345.98,79.75z M348.58,65.12l-1.79,10.02l0.71,0.12c1.75,0.31,2.97,0.05,3.66-0.79
				c0.68-0.84,1.15-1.96,1.4-3.37c0.15-0.85,0.19-1.71,0.12-2.57c-0.08-0.87-0.37-1.58-0.87-2.14c-0.49-0.55-1.47-0.96-2.95-1.22
				L348.58,65.12z"/>
		</g>
	</g>
	<g>
		<g>
			<path d="M402.35,177.77l-11.04,0.53l-0.23-4.67l1.7-0.08l-0.49-10.17l-1.7,0.08l-0.23-4.67l11.92-0.58
				c2.34-0.11,4.15-0.06,5.45,0.14c1.28,0.22,2.29,0.73,3.05,1.53c0.76,0.82,1.17,1.79,1.22,2.92c0.05,1.1-0.25,2-0.9,2.69
				c-0.67,0.71-1.5,1.21-2.48,1.53c1.39,0.34,2.48,0.93,3.26,1.75c0.79,0.84,1.21,1.81,1.26,2.91c0.06,1.31-0.3,2.44-1.1,3.4
				c-0.8,0.95-1.92,1.6-3.38,1.95C407.24,177.39,405.13,177.64,402.35,177.77z M399.82,162.63l0.17,3.56l1.67-0.08
				c1.13-0.05,1.87-0.25,2.21-0.6c0.32-0.34,0.47-0.78,0.44-1.32c-0.02-0.46-0.2-0.86-0.52-1.21c-0.33-0.35-1.18-0.49-2.56-0.43
				L399.82,162.63z M400.16,169.74l0.19,3.84l1.7-0.08c1.08-0.05,1.86-0.23,2.32-0.53c0.45-0.3,0.66-0.81,0.63-1.52
				c-0.03-0.67-0.27-1.15-0.7-1.44c-0.44-0.29-1.26-0.4-2.46-0.35L400.16,169.74z"/>
			<path d="M427.86,176.54l-11.12,0.54l-0.23-4.67l1.79-0.09l-0.49-10.17l-1.79,0.09l-0.23-4.67l11.12-0.54l0.23,4.67l-1.78,0.09
				l0.49,10.17l1.78-0.09L427.86,176.54z"/>
			<path d="M440.58,175.93l-9.07,0.44l-0.23-4.67l1.53-0.07l-0.49-10.17l-1.53,0.07l-0.23-4.67l9.34-0.45
				c2.13-0.1,3.88-0.06,5.24,0.14c1.37,0.2,2.67,0.67,3.91,1.43c1.23,0.77,2.22,1.83,2.97,3.2c0.37,0.66,0.66,1.36,0.88,2.12
				c0.21,0.76,0.34,1.56,0.38,2.4c0.08,1.69-0.2,3.25-0.86,4.68c-0.64,1.42-1.49,2.52-2.55,3.31c-1.03,0.79-2.18,1.33-3.44,1.62
				C445.17,175.6,443.22,175.8,440.58,175.93z M439.86,161.09l0.49,10.17l0.72-0.03c1.78-0.09,2.91-0.61,3.4-1.58
				c0.48-0.97,0.68-2.17,0.61-3.6c-0.04-0.86-0.2-1.71-0.46-2.54c-0.27-0.83-0.72-1.46-1.33-1.89c-0.6-0.43-1.65-0.61-3.15-0.54
				L439.86,161.09z"/>
		</g>
	</g>
	<g>
		<g>
			<path d="M493.18,90.39l-10.43,3.66l-1.55-4.41l1.6-0.56l-3.37-9.61l-1.6,0.56l-1.55-4.41l11.26-3.95
				c2.21-0.77,3.96-1.25,5.26-1.41c1.29-0.15,2.41,0.04,3.36,0.59c0.96,0.57,1.63,1.38,2,2.45c0.37,1.04,0.33,1.99-0.09,2.83
				c-0.44,0.87-1.09,1.59-1.95,2.17c1.43-0.07,2.64,0.18,3.63,0.75c1,0.58,1.68,1.39,2.04,2.42c0.43,1.24,0.4,2.43-0.09,3.57
				c-0.49,1.13-1.39,2.08-2.68,2.83C497.76,88.63,495.81,89.46,493.18,90.39z M486.43,76.59l1.18,3.37l1.58-0.55
				c1.07-0.37,1.72-0.77,1.94-1.2c0.21-0.42,0.23-0.88,0.05-1.39c-0.15-0.43-0.43-0.77-0.85-1.01c-0.41-0.24-1.27-0.14-2.58,0.32
				L486.43,76.59z M488.79,83.31l1.27,3.63l1.6-0.56c1.02-0.36,1.72-0.75,2.07-1.17c0.35-0.42,0.41-0.96,0.17-1.64
				c-0.22-0.63-0.58-1.02-1.08-1.18c-0.5-0.15-1.32-0.03-2.46,0.37L488.79,83.31z"/>
			<path d="M517.28,81.94l-10.51,3.68l-1.55-4.41l1.7-0.59l-3.37-9.61l-1.7,0.59l-1.55-4.41l10.51-3.68l1.55,4.41l-1.68,0.59
				l3.37,9.61l1.68-0.59L517.28,81.94z"/>
			<path d="M529.29,77.72l-8.57,3.01l-1.55-4.41l1.44-0.51l-3.37-9.61l-1.44,0.51l-1.55-4.41l8.82-3.09
				c2.01-0.71,3.7-1.16,5.06-1.36c1.37-0.2,2.75-0.12,4.15,0.26c1.39,0.38,2.65,1.13,3.76,2.23c0.54,0.52,1.02,1.12,1.44,1.78
				c0.42,0.67,0.77,1.4,1.05,2.19c0.56,1.6,0.73,3.17,0.51,4.73c-0.21,1.54-0.71,2.84-1.5,3.91c-0.76,1.05-1.71,1.89-2.83,2.53
				C533.6,76.09,531.79,76.85,529.29,77.72z M524.38,63.71l3.37,9.61l0.68-0.24c1.68-0.59,2.61-1.42,2.8-2.48
				c0.18-1.07,0.04-2.27-0.44-3.63c-0.29-0.81-0.67-1.58-1.16-2.3c-0.5-0.72-1.1-1.2-1.81-1.43c-0.7-0.24-1.76-0.11-3.17,0.38
				L524.38,63.71z"/>
		</g>
	</g>
</g>
<g id="Layer_2">
</g>
</svg>
