<svg id="Layer_1" data-name="Layer 1" xmlns="http://www.w3.org/2000/svg" viewBox="0 0 300.26 51.54"><defs><style>.cls-1{fill:#fbaa1b;}.cls-2{fill:#fff;}</style></defs><rect class="cls-1" x="3.88" y="3.17" width="44.66" height="44.66" rx="3.98"/><path class="cls-2" d="M37.94,37.06l3.37,1.8a17.72,17.72,0,0,1-3.82,5.29,15.71,15.71,0,0,1-4.94,3,17.49,17.49,0,0,1-6.2,1q-7.65,0-12-5A16.92,16.92,0,0,1,10.07,31.9a16.75,16.75,0,0,1,3.66-10.63,14.92,14.92,0,0,1,12.42-5.94,15.43,15.43,0,0,1,12.76,6.08A16.78,16.78,0,0,1,42.34,32.1H14.21a12.83,12.83,0,0,0,3.49,9A11.07,11.07,0,0,0,26,44.58a13.2,13.2,0,0,0,4.65-.85,12.36,12.36,0,0,0,3.84-2.21A18.4,18.4,0,0,0,37.94,37.06Zm0-8.42a13.16,13.16,0,0,0-2.34-5.15,11.16,11.16,0,0,0-4.08-3.12,12.52,12.52,0,0,0-5.34-1.18,11.44,11.44,0,0,0-7.91,3,13.49,13.49,0,0,0-3.63,6.48Z"/><path class="cls-2" d="M51.65,48V5.68h8.77q9.51,0,13.82,1.54a18.37,18.37,0,0,1,9.61,7.47,22.75,22.75,0,0,1,3.47,12.69,22.27,22.27,0,0,1-2.76,11.2,17.55,17.55,0,0,1-7.14,7.15Q73,48,65.13,48Zm4.06-4h4.88q8.76,0,12.19-1.08a14,14,0,0,0,7.51-5.58A17.24,17.24,0,0,0,83,27.44a18.18,18.18,0,0,0-3-10.48A14.88,14.88,0,0,0,71.81,11q-4-1.23-13.1-1.23h-3Z"/><path class="cls-2" d="M117.68,37.06l3.37,1.8a17.56,17.56,0,0,1-3.83,5.29,15.49,15.49,0,0,1-4.94,3,17.39,17.39,0,0,1-6.19,1q-7.66,0-12-5a17.16,17.16,0,0,1-.66-21.95,15,15,0,0,1,12.43-5.94,15.45,15.45,0,0,1,12.76,6.08,16.78,16.78,0,0,1,3.43,10.69H94a12.86,12.86,0,0,0,3.48,9,11.1,11.1,0,0,0,8.31,3.5,13.3,13.3,0,0,0,4.66-.85,12.6,12.6,0,0,0,3.84-2.21A18.65,18.65,0,0,0,117.68,37.06Zm0-8.42a13.16,13.16,0,0,0-2.34-5.15,11.16,11.16,0,0,0-4.08-3.12,12.53,12.53,0,0,0-5.35-1.18,11.42,11.42,0,0,0-7.9,3,13.49,13.49,0,0,0-3.63,6.48Z"/><path class="cls-2" d="M140.87,15.33a15.54,15.54,0,0,1,12,5.23,16.16,16.16,0,0,1,4.39,11.34q.06,16.22,0,16.47H153V41.26q-3.34,6.23-12.14,7a15.31,15.31,0,0,1-11.75-4.9,16.22,16.22,0,0,1-4.55-11.43,16.35,16.35,0,0,1,4.31-11.31A15.49,15.49,0,0,1,140.87,15.33Zm0,3.94A11.54,11.54,0,0,0,132.28,23a12.39,12.39,0,0,0-3.6,9,12.71,12.71,0,0,0,1.84,6.54,14.16,14.16,0,0,0,6.24,5.31q11,2.46,15.68-10a21.41,21.41,0,0,0-.86-7.65,12.18,12.18,0,0,0-2.2-3.14A11.27,11.27,0,0,0,140.87,19.27Z"/><path class="cls-2" d="M161,4.77H165V48.2H161Z"/><path class="cls-2" d="M196.2,37.06l3.37,1.8a17.91,17.91,0,0,1-3.83,5.29,15.6,15.6,0,0,1-4.94,3,17.45,17.45,0,0,1-6.2,1q-7.65,0-12-5A17.12,17.12,0,0,1,172,21.27a14.92,14.92,0,0,1,12.42-5.94,15.47,15.47,0,0,1,12.77,6.08A16.9,16.9,0,0,1,200.6,32.1H172.46a12.83,12.83,0,0,0,3.49,9,11.1,11.1,0,0,0,8.31,3.5,13.3,13.3,0,0,0,4.66-.85,12.6,12.6,0,0,0,3.84-2.21A18.91,18.91,0,0,0,196.2,37.06Zm0-8.42a13.45,13.45,0,0,0-2.34-5.15,11.19,11.19,0,0,0-4.09-3.12,12.46,12.46,0,0,0-5.34-1.18,11.46,11.46,0,0,0-7.91,3,13.49,13.49,0,0,0-3.63,6.48Z"/><path class="cls-2" d="M203.05,33.87V30.1a16.7,16.7,0,0,1,1.32-4.6,15.34,15.34,0,0,1,5.37-7.2C212,16.78,213.85,16,215.33,16a7.14,7.14,0,0,1,3.54,1.08l-2.08,3.37q-2.65-1-5.27,1.57a13.82,13.82,0,0,0-3.61,5.54c-.5,1.77-.75,5.1-.75,10v10.6h-4.11Z"/><path class="cls-2" d="M221,5.68h13.45a19.76,19.76,0,0,1,7.74,1.2,9.5,9.5,0,0,1,4.27,3.68A10.21,10.21,0,0,1,248,16.05a9.87,9.87,0,0,1-1.38,5.14,10.2,10.2,0,0,1-4.07,3.74,15.81,15.81,0,0,1,5.11,2.64,10.59,10.59,0,0,1,2.77,3.64,10.83,10.83,0,0,1,1,4.66,11.42,11.42,0,0,1-3.74,8.63Q244,48,237.72,48H221Zm4.14,4.14V23.39h7.51a18.7,18.7,0,0,0,6.47-.83A7.09,7.09,0,0,0,242.42,20a6.73,6.73,0,0,0,1.21-3.92,5.56,5.56,0,0,0-2-4.57c-1.35-1.11-3.51-1.66-6.46-1.66Zm0,17.82V43.89H235.5a18.58,18.58,0,0,0,6.78-.91,7.82,7.82,0,0,0,3.47-2.83,7.3,7.3,0,0,0,1.31-4.2A7.23,7.23,0,0,0,245.22,31a9.45,9.45,0,0,0-5.07-2.89,37.58,37.58,0,0,0-7.51-.51Z"/><path class="cls-2" d="M287.12,46.76a17.7,17.7,0,0,1-7.18,1.47,15.48,15.48,0,0,1-11.43-4.8,15.84,15.84,0,0,1-4.74-11.56,16.12,16.12,0,0,1,4.72-11.71,15.26,15.26,0,0,1,11.33-4.83,15.54,15.54,0,0,1,6.89,1.53,17.09,17.09,0,0,1,5.68,4.64V4h4V33.7a21.61,21.61,0,0,1-3.09,8.42A18,18,0,0,1,287.12,46.76Zm2-6a12.45,12.45,0,0,0,3.59-9.11,13,13,0,0,0-1.59-6.41,11.67,11.67,0,0,0-4.57-4.54A12.68,12.68,0,0,0,280.22,19a12,12,0,0,0-6.12,1.67,12.11,12.11,0,0,0-4.57,4.71,12.9,12.9,0,0,0-1.7,6.35,12.67,12.67,0,0,0,1.68,6.34A12.49,12.49,0,0,0,274,42.71a12.1,12.1,0,0,0,6.24,1.67A11.87,11.87,0,0,0,289.08,40.72Z"/><path class="cls-2" d="M289.39,32a9.14,9.14,0,1,1-9.11-9.19A9.11,9.11,0,0,1,289.39,32ZM273.86,29.6h12.78a6.76,6.76,0,0,0-12.78,0Zm5.19,9c.14-3.72-2.89-6.91-5.62-6.62C273.15,34.93,276.05,38.35,279.05,38.61Zm2.42,0c3.56-.48,5.92-4.16,5.55-6.68C283.57,31.91,281.26,35.73,281.47,38.62Zm.25-6.72a1.47,1.47,0,1,0-2.93,0,1.47,1.47,0,0,0,2.93,0Z"/><path class="cls-2" d="M255.49,16.87h4V48h-4Zm4-3.82a2.83,2.83,0,0,0,0-4.06,2.92,2.92,0,0,0-4.06,0,2.7,2.7,0,0,0-.83,2,2.74,2.74,0,0,0,.83,2.05,2.9,2.9,0,0,0,4.06,0Z"/></svg>