<svg id="Layer_1" data-name="Layer 1" xmlns="http://www.w3.org/2000/svg" viewBox="0 0 360 360"><defs><style>.cls-1{fill:#238ccc;}.cls-2{fill:#fff;}</style></defs><path class="cls-1" d="M280.31,260c-3.92-3.48-7.59-6.69-11.21-9.95a8.54,8.54,0,0,1-3-8.07,5.25,5.25,0,0,0-1.34-4.67c-2.63-2.73-5.37-5.35-8-7.9-2.18,1.39-3.94,2.59-5.77,3.67a11.45,11.45,0,0,1-2.82,1.12,2.25,2.25,0,0,1-3-1.54,3,3,0,0,0-3.22-2.07c-8.6.68-17.28.18-25.8,1.91-.24.05-.47.13-.94.26,2.06,2.51,5.19,3.73,6.77,6.42l-.22.48a11.23,11.23,0,0,1-2.32,0c-3.91-.87-7.84-1.69-11.69-2.78a10,10,0,0,0-7.09.22c-4.66,2-9.44,3.7-14.08,5.75a31.71,31.71,0,0,0-5.25,3.35,8.63,8.63,0,0,0-3.65,9.08c.49,3,1.17,6.06,1.79,9.19-3.8.12-7.67,0-11.15-1.89a8,8,0,0,1-3.32-3.36c-1.63-3.42-2.81-7.05-4.3-10.54a34.21,34.21,0,0,0-2.58-4.66c-1.07-1.71-2.29-3.33-3.45-5-1.76.85-3.37,1.7-5,2.41a24.71,24.71,0,0,1-3.89,1.31,4.45,4.45,0,0,1-4.94-1.46,25.07,25.07,0,0,0-3-2.8c-2.3-2-4.56-4-6.05-6.9-1.32-2.57-3.51-4.71-5.37-7a2.16,2.16,0,0,0-1.26-.69,66.53,66.53,0,0,0-15.63-1,41.31,41.31,0,0,1-7.46,0,16.91,16.91,0,0,1-10.74-5.25c-5.76-6-13-9.52-20.75-12a3.88,3.88,0,0,1-2.4-2c-1.36-2.44-2.83-4.82-4.41-7.11a11.69,11.69,0,0,0-5.55-4.35,10.27,10.27,0,0,1-6-6c-.94-2.3-1.7-4.67-2.41-7.05C48,173,46.16,166.79,44.47,160.57a66.2,66.2,0,0,1-1.67-8.48,8.42,8.42,0,0,1,1.58-5.77c1.51-2.29,3-4.56,4.59-6.83a11.48,11.48,0,0,0,1.87-8.4,25.2,25.2,0,0,1,2.24-14,141.47,141.47,0,0,0,7.45-20.92,4.92,4.92,0,0,1,.31-.7c3.33.62,6.76.32,10.06,1.8,7.84,3.5,16.21,5.26,24.61,6.77a389.9,389.9,0,0,0,50,5.25c9.34.45,18.68.85,28,1.52,4.7.33,9.36,1.23,14.05,1.81,5.94.74,11.9,1.42,17.85,2.11,2.31.27,4.62.5,7.24.77L201.24,124c7.1-.68,13.83-1.34,19.81-5.82-.57,2.35-1,4.26-1.61,6.69,2.41-.5,4.55-.81,6.6-1.41,1.74-.52,3.37-1.41,5.06-2.08,2.51-1,5-1.09,7.18.73a11.09,11.09,0,0,1,.77.81c-1.09.25-2,.45-2.9.67-10.77,2.62-16.75,11.08-15.68,22.13a20,20,0,0,0,2.25,8.31,4.08,4.08,0,0,0,4.07,2.41c1.7-.15,2.55-.84,2.65-2.56.17-3,.11-6,.28-9a22.33,22.33,0,0,1,4.16-12.07c2.45-3.38,6-4.23,9.8-4.17,1.91,0,2.65,1.08,2.21,3A32.13,32.13,0,0,1,244.6,135c-.63,1.7-.32,2.33,1.35,2.86,2.15.68,2.46,1.24,1.53,3.31a17.23,17.23,0,0,0-1,10.88c.23,1.15.63,1.7,1.89,1.46,5-1,10.1-1.74,15.1-2.81a8.77,8.77,0,0,0,5.58-4.22c1.61-2.58,1-4.53-1.72-5.79-.4-.19-.78-.42-1.62-.88a8.17,8.17,0,0,1,2.13-.92,45.15,45.15,0,0,1,6.36-.19c1.32.09,1.8-.35,1.92-1.5a14.21,14.21,0,0,0,.14-2.43c-.25-3.67,1.73-6,4.57-7.87s6.41-2.43,9.88-2.72a22.59,22.59,0,0,0,4.35-.63,8.74,8.74,0,0,0,6.49-6.07c0-.09.07-.19.11-.28,1.58-4,3.4-7.92,3.71-12.32a6.09,6.09,0,0,1,1.09-3,3.07,3.07,0,0,1,2.19-1.15c.49,0,1.06,1,1.43,1.64a5,5,0,0,1,.36,1.63,7.6,7.6,0,0,0,2.85,4.71,12.22,12.22,0,0,1,3.94,4.66c-2.13,1.8-4.22,3.49-6.23,5.26-4.11,3.6-5.65,8.32-5.66,13.62,0,2.93.71,3.77,3.56,4.56,1.66.45,2.23,1.7,1,2.94a13.65,13.65,0,0,1-4,2.68,28.24,28.24,0,0,1-4.07,1.23,6.67,6.67,0,0,0-4.75,5.1c-.49,2-.78,4.09-1.28,6.11-.77,3.09-2.22,5.68-5.62,6.71.16,3.24.33,6.5.5,9.76l-.36.08a16.91,16.91,0,0,0-1.71-2c-.68-.59-1.68-1.25-2.38-.34a2.65,2.65,0,0,0,.08,2.31,28.35,28.35,0,0,0,2.42,3.5,13.24,13.24,0,0,1,2.28,10.83,23.28,23.28,0,0,1-8.19,14,29,29,0,0,0-7.56,9.63,13.79,13.79,0,0,1-3.3,4.07c-3.35,2.87-4.13,4.88-2.24,8.91s4.33,8.16,6.5,12.24,4.33,8.16,6.48,12.24a8,8,0,0,1-.07,8.26C281.92,256.64,281.25,258.17,280.31,260Z"/><path class="cls-2" d="M161.73,169a7.36,7.36,0,0,1,7.65,2.09c1.5,1.5,3,3,4.39,4.42,5.68-5.67,11.2-11.17,16.81-16.78a5.32,5.32,0,0,0-4.9-2.88c-11,0-22,0-33,0a5.08,5.08,0,0,0-5.35,5.34q0,13,0,25.93a11.22,11.22,0,0,0,4.78,9.31c4.46,3.34,8.95,6.64,13.44,9.94a5.61,5.61,0,0,0,7.21.07c4.62-3.36,9.28-6.67,13.76-10.21a14.21,14.21,0,0,0,3.56-4.53c1.88-3.62.83-7.59,1-11.46-3,2.76-5.78,5.59-8.59,8.41L174,197.08c-5.45-5.38-11-10.51-16.09-16C154.23,177.07,156.46,170.49,161.73,169Z"/><path class="cls-2" d="M195.47,177.54c.15,3,.06,6,0,9.06A16.12,16.12,0,0,1,188.82,200q-6.76,5-13.58,10a9.87,9.87,0,0,1-12.06,0c-4.59-3.33-9.17-6.66-13.68-10.09a15.86,15.86,0,0,1-6.59-13.2q0-12.61,0-25.23c0-5.94,4.15-10.06,10.1-10.06h32.34a13.23,13.23,0,0,1,2.08.15,10,10,0,0,1,6.37,4l1.58-1.39a11.77,11.77,0,0,0-9.82-4.85c-11,0-21.93-.06-32.9,0a11.77,11.77,0,0,0-11.91,12c0,8.51-.07,17,0,25.51A17.86,17.86,0,0,0,148,201.51c4.66,3.55,9.39,7,14.13,10.43a12,12,0,0,0,14.08,0q7.13-5.11,14.13-10.42c3.83-2.89,6.51-6.73,6.89-11.5.42-5.34.09-10.74.09-16.14A3.69,3.69,0,0,0,195.47,177.54Z"/><path class="cls-2" d="M207.31,153.93a4.19,4.19,0,0,0-5.92-.06l-27.3,26.77-6.82-6.82a4.19,4.19,0,0,0-5.92,5.92l9.75,9.75.15.13a1.07,1.07,0,0,0,.16.14,1.09,1.09,0,0,0,.17.13l.17.13.18.11.17.1.21.09.17.08.22.08.16.06.25.06.15,0,.28,0h.12a2.61,2.61,0,0,0,.4,0h0a2.68,2.68,0,0,0,.4,0h.1l.29,0,.13,0,.26-.07.15,0,.23-.08.15-.07.22-.1.15-.09a2.25,2.25,0,0,0,.21-.12l.15-.11.19-.13.14-.13.16-.14,30.26-29.67A4.19,4.19,0,0,0,207.31,153.93Z"/></svg>