<svg id="Layer_1" data-name="Layer 1" xmlns="http://www.w3.org/2000/svg" viewBox="0 0 360 360"><defs><style>.cls-1{fill:#238ccc;}.cls-2{fill:#fff;}</style></defs><path class="cls-1" d="M216.89,213.51c1.29-1.44,2.43-2.79,3.65-4.07C228.3,201.25,236,193,243.89,185a19.2,19.2,0,0,1,25.74-1.43,19.58,19.58,0,0,1,4.78,25.22,21.81,21.81,0,0,1-3.66,4.48c-6.24,6.05-12.64,11.94-18.82,18.05s-12,12.23-18,18.31c-4.34,4.4-8.76,8.72-13.15,13.07-7.55,7.49-16.71,11.56-27.27,11.57-13.79,0-27.58-.53-41.36-1-7.46-.26-14.9-1-22.35-1.31a6.51,6.51,0,0,0-3.53,1.2c-5.14,3.26-10.07,7.23-15.54,9.93a4.84,4.84,0,0,1-1.77.57,1.58,1.58,0,0,1-1.39-.47,1.86,1.86,0,0,1-.16-1.64,27.1,27.1,0,0,1,4.79-9.6c4.09-5,6.13-7.46,9.58-8.77a15.61,15.61,0,0,1,6.18-.95c25.14.59,42.44-.12,59.05-.13,2.94,0,5.9.13,8.82-.14A26.86,26.86,0,0,0,211.37,255c6-5.33,12.15-10.55,18-16,4.73-4.4,9.22-9.05,13.73-13.68,6.61-6.79,13.16-13.65,19.71-20.51,2.25-2.36,3.19-5.15,2-8.32a7.53,7.53,0,0,0-6.42-5.08c-2.7-.37-4.89.75-6.8,2.57-7.89,7.44-15.74,14.93-23.71,22.29-2.84,2.62-6,4.85-9,7.36a6.88,6.88,0,0,0-2,2.65c-3.07,8.06-9.17,12.28-17.81,12.39-11.43.15-22.66-1-33.49-4.93a17,17,0,0,1-3.33-1.51c-2.12-1.34-2-3.2.34-4.14a10.91,10.91,0,0,1,4-.62c10.7,0,21.41,0,32.12,0a6.19,6.19,0,0,0,6.19-3.83,6.35,6.35,0,0,0-1.22-7.4,7.39,7.39,0,0,0-4-2.24c-6.78-.67-13.57-1.24-20.37-1.43-5.38-.15-10.77.39-16.15.5q-15.19.31-30.38.49a27.62,27.62,0,0,0-18.91,7.1c-2.39,2.14-5.6,4.88-8.87,5.36-1.57.23-3.07-.12-3.67-1.76a4.53,4.53,0,0,1,.09-3.08c1.91-5.4,7.34-10.5,11.93-13.72a33.05,33.05,0,0,1,16.44-5.84c1.22-.1,2.46-.14,3.69-.12,21.4.3,42.81.39,64.22.41,8.08,0,14.15,3.08,18,10.26A13.57,13.57,0,0,0,216.89,213.51Z"/><path class="cls-1" d="M232.7,130.32a30.7,30.7,0,0,1-1.44,4.83c-1.81,4.07-3.82,8-5.85,12a3.45,3.45,0,0,0,.15,3.81c2.33,3.71,4.62,7.45,6.82,11.24,4,6.87,1.78,14.62-5.45,17.94,0,0-6.18,4.32-13.4,4.52-1.78.06-3.24-.17-3.72-1.07a3.28,3.28,0,0,1,.1-2.3,4.82,4.82,0,0,1,1.07-1.68c2.81-2.84,10.49-7.42,10.49-7.42,1-.61,2.07-1.26,2.29-2.38.15-.74-.26-1.6-1.16-3-2.82-4.25-5.56-8.56-8.49-12.73a8,8,0,0,1-.64-8.71c2-4.21,3.94-8.47,5.93-12.69,1.74-3.69,1.7-3.86-2.18-5.43-4.46-1.8-8.91-3.64-13.41-5.36a7.26,7.26,0,0,1-4.94-6q-1.34-7.86-2.74-15.71c-.55-3-1.1-3.33-4.12-2.62-4.9,1.14-9.8,2.27-14.67,3.5a7.41,7.41,0,0,1-7.7-1.9c-3.54-3.47-7.25-6.76-10.9-10.11-2.73-2.52-3.35-2.49-5.7.29q-4.95,5.84-9.84,11.72a6.82,6.82,0,0,1-6.85,2.6c-5.25-.85-10.52-1.56-15.78-2.3-3.08-.43-3.76.1-4,3.14-.45,5.15-.94,10.3-1.27,15.46a6.86,6.86,0,0,1-4.16,6.24c-4.7,2.32-9.35,4.76-14,7.18-3.09,1.61-3.48,3-1.71,6.06,2.7,4.59,5.38,9.18,8.14,13.72a5.18,5.18,0,0,1,.12,5.69c-2.69,4.75-5.34,9.52-8,14.26-2.36,4.13-1.59,7.1,2.45,9.63s7.9,5,11.73,7.64a2,2,0,0,1,.62.6,2.35,2.35,0,0,1,0,2.59,2.52,2.52,0,0,1-1.88.82,12.05,12.05,0,0,1-5.79-1c-5.34-2.37-8-3.56-8.73-4.05-3.44-2.34-6.39-4.35-7.81-8.07a14.64,14.64,0,0,1,.63-11.61c1.73-3.63,3.43-7.28,5.25-10.87a3.57,3.57,0,0,0-.21-4c-2.23-3.35-4.37-6.76-6.51-10.17-4.8-7.65-2.41-16.72,5.52-21,3.34-1.82,6.65-3.71,10.06-5.39a4.43,4.43,0,0,0,2.73-4.2c.2-4,.47-8,.87-12,.85-8.54,8-14,16.48-12.77,3.83.57,7.68,1.09,11.48,1.87a5.26,5.26,0,0,0,5.79-2.07c2.38-3,5-5.74,7.64-8.48,5.27-5.45,12.86-5.58,18.49-.4,3.22,3,6.47,5.91,9.65,8.92a3.52,3.52,0,0,0,3.73.87c4.08-1.17,8.18-2.23,12.27-3.34,8.19-2.23,15.09,1.93,16.86,10.22.79,3.72,1.65,7.45,2.18,11.21a5.2,5.2,0,0,0,4,4.68c3.94,1.34,7.84,2.84,11.65,4.51C230,119.53,232.42,123.74,232.7,130.32Z"/><path class="cls-2" d="M160.2,115.36c.5,0,1,0,1.51,0a4.72,4.72,0,0,1,3.64,1.44c.44.53.41.94.69,3.93.12,1.24.22,2.24.29,2.88a19.76,19.76,0,0,1,3.34,2.11,16.37,16.37,0,0,1,5.38,7c.82,2.2.57,3.32.31,4a3.88,3.88,0,0,1-1,1.43c-1.6,1.48-3.45,1.13-5.23.29a31.31,31.31,0,0,1-2.82-1.59,11.56,11.56,0,0,0-12.1-.21,7.72,7.72,0,0,0-4.36,7.59c.13,3.16,2,5.18,4.84,6.24,2.21.83,4.58,1.22,6.78,2.07,3.93,1.52,8.07,2.77,11.59,5,6.64,4.19,9.26,10.7,8,18.4s-5.83,13-13.33,15.45c-5.7,1.86-11.21,1.34-16.24-2.17a11.9,11.9,0,0,1-4.93-8.28c-.27-1.65,0-3.25,1.8-4,1.62-.65,2.85.09,4,1.33a9.9,9.9,0,0,0,14.7.24,7.57,7.57,0,0,0-.16-10.67c-3.1-3.05-7-4.6-11.06-6a61.34,61.34,0,0,1-7.4-2.89c-6.94-3.52-10.55-9.21-10.1-17.06s4.46-13.31,11.55-16.55c.23-.11,1.62-.49,3.46-1.18.72-.26,1.29-.49,1.61-.62-.05-.35-.14-.91-.28-1.59s-.21-.93-.23-1c-.35-1.86-.21-3.19.49-4.07.88-1.12,2.46-1.29,3.78-1.43A8.71,8.71,0,0,1,160.2,115.36Z"/></svg>