<svg id="Layer_1" data-name="Layer 1" xmlns="http://www.w3.org/2000/svg" viewBox="0 0 360 360"><defs><style>.cls-1{fill:#238ccc;}.cls-2{fill:#fff;}</style></defs><path class="cls-1" d="M249,128.5v-29H147.29c-4.15,0-6.42-1.65-6.73-4.83a5.17,5.17,0,0,1,4.31-5.85,19.17,19.17,0,0,1,3.39-.18H252.05c6.4,0,7.88,1.47,7.88,7.82q0,13.94,0,27.88v4c3.27-3.26,5.88-5.93,8.57-8.53,2.27-2.19,5.1-2.51,7.3-1a5.21,5.21,0,0,1,.77,8.11q-9.06,9.34-18.4,18.4a5.14,5.14,0,0,1-7.52-.18q-9.08-8.88-18-18a5.4,5.4,0,1,1,7.68-7.59C243.11,122.29,245.7,125.1,249,128.5Z"/><path class="cls-1" d="M159.62,260.36h89.51V257c0-12.6-.11-25.2.13-37.79a7.39,7.39,0,0,1,2.88-5.23c1.23-.83,3.95-.55,5.34.32a6.28,6.28,0,0,1,2.32,4.63c.17,15.49.15,31,.08,46.47,0,4.16-2.06,5.89-6.6,5.89H159.82l-.73,1c2.64,2.37,5.36,4.66,7.92,7.13,2.89,2.8,3.13,6.11.82,8.44s-5.59,2.08-8.45-.75q-8.34-8.31-16.64-16.66c-3.09-3.12-3.07-6,0-9.11q8.29-8.36,16.65-16.65c2.93-2.9,6-3.13,8.42-.69s2,5.54-.88,8.45c-2.31,2.36-4.65,4.69-7,7A4.43,4.43,0,0,0,159.62,260.36Z"/><path class="cls-1" d="M99.1,146c-2.48,2.6-4.91,5.25-7.45,7.78-2.72,2.7-5.88,2.86-8.19.56s-2.17-5.47.53-8.2q8.49-8.58,17.07-17.07c2.93-2.89,5.76-2.92,8.65-.06q8.7,8.58,17.28,17.3c2.52,2.56,2.62,5.73.43,8s-5.4,2.24-8-.24-5.22-5.28-8.57-8.7v81.41c0,.93,0,1.86,0,2.79-.2,3.32-2.41,5.62-5.39,5.66s-5.25-2.23-5.5-5.54c-.07-.92,0-1.86,0-2.79V146.44Z"/><path class="cls-2" d="M129,266c0,5.68,0,11.35,0,17,0,4.35-1.86,6.36-6.12,6.38q-17.49.09-35,0c-4.08,0-6-2.07-6-6.19q-.06-17.34,0-34.67c0-4.21,2-6.26,6.29-6.28q17.33-.07,34.66,0c4.24,0,6.13,2.08,6.16,6.4C129,254.45,129,260.23,129,266Zm-10.91-12.57H92.87v25h25.19Z"/><path class="cls-2" d="M129,94.33c0,5.67,0,11.35,0,17,0,4.36-1.86,6.36-6.12,6.38q-17.49.1-35,0c-4.08,0-6-2.08-6-6.19q-.06-17.34,0-34.67c0-4.22,2-6.26,6.29-6.28q17.33-.09,34.66,0c4.24,0,6.13,2.08,6.16,6.4C129,82.77,129,88.55,129,94.33ZM118.06,81.75H92.87v25h25.19Z"/><path class="cls-2" d="M254.43,156.45c5.77,0,11.55,0,17.33,0,4.43,0,6.37,2,6.39,6.47q.06,17,0,34c0,4.59-2,6.6-6.63,6.61q-17,0-34,0c-4.48,0-6.44-1.94-6.45-6.39q0-17.17,0-34.35c0-4.55,1.84-6.35,6.39-6.38C243.08,156.43,248.75,156.45,254.43,156.45ZM242,167.37v25.07h25V167.37Z"/></svg>